<svg width="245" height="49" fill="none" xmlns="http://www.w3.org/2000/svg"><path d="M103 0h126c7.542 0 11.314 0 13.657 2.343S245 8.458 245 16v17c0 7.542 0 11.314-2.343 13.657S236.542 49 229 49H103V0Z" fill="#00094A"/><path d="M102.5.5H16c-3.785 0-6.574.001-8.712.288-2.123.286-3.528.846-4.591 1.909C1.634 3.76 1.074 5.165.788 7.288.501 9.426.5 12.215.5 16v17c0 3.785.001 6.574.288 8.712.286 2.123.846 3.528 1.909 4.591 1.063 1.064 2.468 1.623 4.591 1.909 2.138.287 4.927.288 8.712.288h86.5V.5Z" stroke="#00094A"/><path fill-rule="evenodd" clip-rule="evenodd" d="m116.761 22.042 1.655 1.673c.48.485.48 1.279 0 1.764l-1.655 1.673a1.23 1.23 0 0 1-1.746 0l-1.655-1.673a1.26 1.26 0 0 1 0-1.764l1.655-1.673a1.23 1.23 0 0 1 1.746 0ZM116.761 31.763l1.655 1.673c.48.485.48 1.28 0 1.764l-1.655 1.673a1.23 1.23 0 0 1-1.746 0L113.36 35.2a1.26 1.26 0 0 1 0-1.764l1.655-1.673a1.227 1.227 0 0 1 1.746 0Z" fill="#06A39C"/><path fill-rule="evenodd" clip-rule="evenodd" d="m126.378 12.32 1.655 1.673c.48.485.48 1.279 0 1.764l-1.655 1.673a1.23 1.23 0 0 1-1.746 0l-1.655-1.673a1.26 1.26 0 0 1 0-1.764l1.655-1.673a1.23 1.23 0 0 1 1.746 0ZM126.378 22.042l1.655 1.673c.48.485.48 1.279 0 1.764l-1.655 1.673a1.23 1.23 0 0 1-1.746 0l-1.655-1.673a1.26 1.26 0 0 1 0-1.764l1.655-1.673a1.23 1.23 0 0 1 1.746 0Z" fill="#30D2A3"/><path fill-rule="evenodd" clip-rule="evenodd" d="m126.378 31.763 1.655 1.673c.48.485.48 1.28 0 1.764l-1.655 1.673a1.23 1.23 0 0 1-1.746 0l-1.655-1.673a1.26 1.26 0 0 1 0-1.764l1.655-1.673a1.227 1.227 0 0 1 1.746 0Z" fill="#06A39C"/><path fill-rule="evenodd" clip-rule="evenodd" d="m135.997 12.32 1.655 1.673c.48.485.48 1.279 0 1.764l-1.655 1.673a1.23 1.23 0 0 1-1.746 0l-1.655-1.673a1.26 1.26 0 0 1 0-1.764l1.655-1.673a1.23 1.23 0 0 1 1.746 0ZM135.997 22.042l1.655 1.673c.48.485.48 1.279 0 1.764l-1.655 1.673a1.23 1.23 0 0 1-1.746 0l-1.655-1.673a1.26 1.26 0 0 1 0-1.764l1.655-1.673a1.23 1.23 0 0 1 1.746 0Z" fill="#30D2A3"/><path fill-rule="evenodd" clip-rule="evenodd" d="m135.997 31.763 1.655 1.673c.48.485.48 1.28 0 1.764l-1.655 1.673a1.23 1.23 0 0 1-1.746 0l-1.655-1.673a1.26 1.26 0 0 1 0-1.764l1.655-1.673a1.227 1.227 0 0 1 1.746 0Z" fill="#06A39C"/><path fill-rule="evenodd" clip-rule="evenodd" d="m116.761 12.32 1.655 1.673c.48.485.48 1.279 0 1.764l-1.655 1.673a1.23 1.23 0 0 1-1.746 0l-1.655-1.673a1.26 1.26 0 0 1 0-1.764l1.655-1.673a1.23 1.23 0 0 1 1.746 0Z" fill="#30D2A3"/><path fill-rule="evenodd" clip-rule="evenodd" d="m152.429 24.637.566 1.442c.068.182.203.25.384.182l1.607-.526c.249-.069.271-.274.203-.458l-.293-.96c-.249-.824-.294-1.67-.294-2.585v-3.98c0-3.088-2.422-4.3-5.091-4.3-2.264 0-3.801.618-5.318 1.739-.158.114-.203.342-.045.526l.883 1.257c.113.16.361.183.543.069 1.268-.8 2.286-1.098 3.938-1.098 1.358 0 2.466.436 2.466 1.51v.274l-3.983.527c-2.783.365-4.434 1.83-4.434 4.14 0 2.333 1.81 3.888 4.412 3.888 1.81 0 3.236-.572 4.344-1.647h.112Zm-.453-2.584c-.792 1.075-2.013 1.738-3.733 1.738-1.426 0-2.059-.595-2.059-1.532 0-.801.566-1.419 1.81-1.624l3.983-.664v2.082h-.001ZM157.814 10c-.203 0-.316.114-.316.32v15.46c0 .206.113.32.316.32h1.539c.181 0 .294-.091.339-.274l.181-.823.158-.023c.928.915 2.263 1.304 3.643 1.304 3.62 0 6.359-2.584 6.359-6.426s-2.67-6.403-6.359-6.403c-1.358 0-2.489.342-3.553 1.234v-4.368c0-.206-.113-.32-.316-.32L157.814 10Zm2.308 7.456c.973-1.006 1.946-1.487 3.553-1.487 2.15 0 3.755 1.51 3.755 3.889 0 2.402-1.606 3.911-3.755 3.911-1.517 0-2.58-.48-3.553-1.555v-4.758Zm12.038-3.82c-.203 0-.316.114-.316.32v6.861c0 3.796 2.058 5.466 5.136 5.466 1.358 0 2.602-.388 3.665-1.373h.136l.203.915c.046.183.159.274.362.274h1.607c.203 0 .316-.114.316-.32V13.957c0-.206-.113-.32-.316-.32h-1.991c-.204 0-.317.114-.317.32v8.211c-.814 1.075-2.127 1.601-3.394 1.601-1.9 0-2.783-.937-2.783-3.11v-6.702c0-.206-.113-.32-.316-.32h-1.992Zm14.776.046-1.472.137c-.18.023-.271.137-.271.297v1.67c0 .205.113.32.317.32h1.403v5.992c0 2.447 1.176 4.185 3.892 4.185 1.154 0 2.014-.251 2.851-.8.203-.115.249-.252.158-.458l-.611-1.464c-.068-.16-.203-.252-.453-.137-.476.25-1.018.365-1.629.365-.973 0-1.584-.595-1.584-1.761v-5.924h3.348c.204 0 .317-.114.317-.32v-1.83c0-.205-.113-.319-.317-.319h-3.348v-2.424a.31.31 0 0 0-.317-.32h-1.718c-.181 0-.294.114-.317.32l-.249 2.47Zm18.917 8.829c-.113-.137-.249-.137-.362-.023-1.176.983-2.398 1.304-3.937 1.304-1.991 0-3.394-1.097-3.825-2.676h9.684c.181 0 .272-.114.272-.32v-.914c0-3.728-2.58-6.427-6.245-6.427-3.688 0-6.45 2.698-6.45 6.427 0 3.682 2.693 6.403 6.563 6.403 1.81 0 3.733-.526 5.362-1.92.113-.115.136-.252.023-.366l-1.085-1.488Zm-4.413-6.564c1.787 0 3.394 1.097 3.575 2.698h-7.309c.362-1.578 1.901-2.698 3.734-2.698Zm14.436-2.493c-3.62 0-6.381 2.698-6.381 6.38s2.76 6.45 6.381 6.45c2.263 0 4.232-1.006 5.385-2.927.091-.114.068-.251-.045-.365l-1.426-1.143c-.135-.115-.248-.115-.361 0-.928 1.372-2.014 1.92-3.553 1.92-2.24 0-3.756-1.67-3.756-3.934 0-2.265 1.494-3.866 3.756-3.866 1.539 0 2.557.572 3.485 1.853.09.114.271.205.429.045l1.426-1.097c.113-.091.136-.206.045-.366-1.085-1.876-3.257-2.95-5.385-2.95ZM223.797 10c-.204 0-.317.114-.317.32v15.46c0 .206.113.32.317.32h1.99c.204 0 .317-.114.317-.32v-8.37c.905-1.006 1.968-1.44 3.304-1.44 1.81 0 2.873 1.051 2.873 3.247v6.565c0 .205.113.32.316.32h1.991c.204 0 .317-.115.317-.32v-6.656c0-3.75-2.309-5.673-5.498-5.673-1.268 0-2.377.366-3.304 1.258V10.32c0-.206-.113-.32-.317-.32h-1.989Z" fill="#fff"/><path d="M145.731 37.439c-.345 0-.678-.047-.997-.142-.319-.1-.569-.224-.75-.373l.319-.631c.186.138.412.249.678.332.266.083.535.124.806.124.671 0 1.006-.199 1.006-.598a.393.393 0 0 0-.136-.315.806.806 0 0 0-.343-.166 5.85 5.85 0 0 0-.575-.125 5.609 5.609 0 0 1-.837-.19 1.281 1.281 0 0 1-.551-.366c-.154-.172-.231-.413-.231-.723 0-.398.159-.717.478-.955.32-.243.748-.365 1.285-.365.282 0 .564.036.846.108.282.072.513.168.694.29l-.327.631c-.346-.232-.753-.348-1.221-.348-.324 0-.572.055-.742.166-.17.11-.255.257-.255.44 0 .144.047.257.143.34a.9.9 0 0 0 .351.183c.144.039.343.083.599.133.34.061.614.127.822.2.213.066.393.182.542.348.149.166.224.399.224.698 0 .398-.165.717-.495.955-.324.232-.769.349-1.333.349ZM150.328 37.439c-.421 0-.798-.097-1.134-.291a2.107 2.107 0 0 1-.79-.797 2.4 2.4 0 0 1-.279-1.163c0-.432.093-.817.279-1.154.192-.344.455-.61.79-.798.336-.193.713-.29 1.134-.29.42 0 .795.097 1.125.29.335.189.595.454.782.798.191.337.287.722.287 1.154 0 .432-.096.82-.287 1.163a2.052 2.052 0 0 1-.782.797 2.18 2.18 0 0 1-1.125.29Zm0-.698c.271 0 .513-.064.726-.191.218-.133.388-.316.51-.548.123-.238.184-.51.184-.814 0-.305-.061-.573-.184-.806a1.31 1.31 0 0 0-.51-.548 1.388 1.388 0 0 0-.726-.19 1.43 1.43 0 0 0-.735.19c-.212.128-.383.31-.51.548a1.697 1.697 0 0 0-.184.806c0 .304.061.576.184.814.127.232.298.415.51.548.218.127.463.191.735.191ZM155.129 31.833c-.457 0-.686.257-.686.772v.382h1.229v.656h-1.213v3.746h-.766v-3.746h-.718v-.656h.718v-.39c0-.438.122-.784.367-1.038.245-.255.588-.382 1.029-.382.171 0 .33.022.479.066.149.045.277.108.383.191l-.231.607a.932.932 0 0 0-.591-.208ZM158.772 37.131c-.111.1-.25.178-.415.233a1.75 1.75 0 0 1-.51.075c-.426 0-.756-.12-.99-.357-.234-.239-.351-.579-.351-1.022v-2.417h-.718v-.656h.718v-.963h.766v.963h1.213v.656h-1.213v2.384c0 .238.056.42.168.548.117.127.282.191.495.191.234 0 .433-.07.598-.208l.239.573ZM166.02 32.987l-1.58 4.402h-.734l-1.221-3.339-1.237 3.339h-.734l-1.572-4.402h.726l1.229 3.505 1.277-3.505h.646l1.253 3.521 1.261-3.52h.686ZM168.205 32.946c.585 0 1.032.15 1.341.448.314.3.471.745.471 1.337v2.658h-.727v-.582a1.243 1.243 0 0 1-.55.474 2.034 2.034 0 0 1-.838.158c-.473 0-.854-.12-1.141-.357a1.168 1.168 0 0 1-.423-.939c0-.388.136-.697.407-.93.271-.238.702-.357 1.293-.357h1.213v-.158c0-.343-.096-.606-.288-.789-.191-.183-.473-.274-.846-.274-.25 0-.494.044-.734.133a1.815 1.815 0 0 0-.606.34l-.319-.598c.218-.182.478-.32.782-.415.303-.1.625-.15.965-.15Zm-.175 3.878c.292 0 .545-.066.758-.2.213-.138.367-.331.463-.58v-.615h-1.181c-.649 0-.974.227-.974.68 0 .222.082.397.247.524.165.127.394.191.687.191ZM172.168 33.726a1.33 1.33 0 0 1 .591-.581c.261-.133.577-.2.949-.2v.773a1.414 1.414 0 0 0-.175-.008c-.415 0-.742.13-.982.39-.234.255-.351.62-.351 1.096v2.193h-.766v-4.402h.734v.74ZM178.436 35.213c0 .06-.005.141-.016.24h-3.431c.048.388.21.701.486.94.282.232.631.348 1.046.348.505 0 .912-.177 1.221-.532l.423.515c-.192.233-.431.41-.719.532a2.37 2.37 0 0 1-.949.183c-.447 0-.843-.095-1.189-.283a2.05 2.05 0 0 1-.806-.805 2.4 2.4 0 0 1-.279-1.163c0-.426.09-.811.271-1.154.186-.344.439-.61.758-.798a2.09 2.09 0 0 1 1.093-.29c.404 0 .764.097 1.077.29.32.189.567.454.743.798.18.343.271.736.271 1.179Zm-2.091-1.595c-.367 0-.675.117-.925.35-.245.232-.389.536-.431.913h2.713a1.413 1.413 0 0 0-.439-.906 1.265 1.265 0 0 0-.918-.357ZM185.632 31.227v6.162h-.734v-.698a1.67 1.67 0 0 1-.646.557 1.937 1.937 0 0 1-.862.19c-.41 0-.777-.094-1.101-.282a2.015 2.015 0 0 1-.766-.789 2.49 2.49 0 0 1-.271-1.179c0-.443.09-.833.271-1.171.186-.338.441-.6.766-.789a2.15 2.15 0 0 1 1.101-.282c.303 0 .583.06.838.182.255.117.468.291.638.524v-2.425h.766Zm-2.178 5.514c.266 0 .508-.064.726-.191.218-.133.388-.316.511-.548a1.76 1.76 0 0 0 .183-.814c0-.305-.061-.573-.183-.806a1.318 1.318 0 0 0-.511-.548 1.413 1.413 0 0 0-.726-.19 1.43 1.43 0 0 0-.734.19c-.213.128-.383.31-.511.548a1.709 1.709 0 0 0-.183.806c0 .304.061.576.183.814.128.232.298.415.511.548.218.127.463.191.734.191ZM190.904 35.213c0 .06-.005.141-.016.24h-3.431c.048.388.21.701.487.94.282.232.63.348 1.045.348.505 0 .912-.177 1.221-.532l.423.515c-.192.233-.431.41-.718.532a2.374 2.374 0 0 1-.95.183c-.447 0-.843-.095-1.189-.283a2.057 2.057 0 0 1-.806-.805 2.4 2.4 0 0 1-.279-1.163c0-.426.09-.811.271-1.154.186-.344.439-.61.758-.798.325-.193.689-.29 1.093-.29.405 0 .764.097 1.078.29.319.189.566.454.742.798.181.343.271.736.271 1.179Zm-2.091-1.595c-.367 0-.675.117-.925.35-.245.232-.389.536-.431.913h2.713a1.413 1.413 0 0 0-.439-.906 1.265 1.265 0 0 0-.918-.357ZM195.632 32.987l-1.851 4.402h-.782l-1.851-4.402h.798l1.452 3.53 1.484-3.53h.75ZM200.053 35.213c0 .06-.006.141-.016.24h-3.432c.048.388.21.701.487.94.282.232.631.348 1.045.348.506 0 .913-.177 1.221-.532l.423.515c-.191.233-.431.41-.718.532a2.37 2.37 0 0 1-.949.183c-.447 0-.844-.095-1.189-.283a2.05 2.05 0 0 1-.806-.805 2.39 2.39 0 0 1-.28-1.163c0-.426.091-.811.272-1.154.186-.344.438-.61.758-.798a2.09 2.09 0 0 1 1.093-.29c.404 0 .763.097 1.077.29.319.189.567.454.742.798.181.343.272.736.272 1.179Zm-2.091-1.595a1.31 1.31 0 0 0-.926.35c-.244.232-.388.536-.431.913h2.713a1.408 1.408 0 0 0-.438-.906 1.265 1.265 0 0 0-.918-.357ZM201.116 31.227h.766v6.162h-.766v-6.162ZM205.156 37.439c-.42 0-.798-.097-1.133-.291a2.107 2.107 0 0 1-.79-.797 2.4 2.4 0 0 1-.279-1.163c0-.432.093-.817.279-1.154.192-.344.455-.61.79-.798.335-.193.713-.29 1.133-.29.421 0 .796.097 1.125.29.336.189.596.454.782.798.192.337.288.722.288 1.154 0 .432-.096.82-.288 1.163a2.038 2.038 0 0 1-.782.797c-.329.194-.704.29-1.125.29Zm0-.698c.272 0 .514-.064.726-.191.219-.133.389-.316.511-.548.123-.238.184-.51.184-.814 0-.305-.061-.573-.184-.806a1.306 1.306 0 0 0-.511-.548 1.383 1.383 0 0 0-.726-.19 1.43 1.43 0 0 0-.734.19c-.213.128-.383.31-.51.548a1.697 1.697 0 0 0-.184.806c0 .304.061.576.184.814.127.232.297.415.51.548.218.127.463.191.734.191ZM210.652 32.946c.41 0 .777.094 1.102.282.324.188.577.451.758.789.186.338.279.728.279 1.171 0 .443-.093.836-.279 1.18-.181.337-.434.6-.758.788a2.158 2.158 0 0 1-1.102.283c-.303 0-.582-.061-.837-.183a1.764 1.764 0 0 1-.639-.532V39h-.766v-6.013h.734v.698c.171-.244.386-.427.647-.548.26-.128.548-.191.861-.191Zm-.063 3.795c.271 0 .513-.064.726-.191.218-.133.388-.316.51-.548.128-.238.192-.51.192-.814 0-.305-.064-.573-.192-.806a1.31 1.31 0 0 0-.51-.548 1.388 1.388 0 0 0-.726-.19c-.266 0-.508.066-.727.199a1.396 1.396 0 0 0-.51.54 1.697 1.697 0 0 0-.184.805c0 .304.061.576.184.814.122.232.292.415.51.548.219.127.461.191.727.191ZM219.14 32.946c.532 0 .952.16 1.261.481.314.322.47.798.47 1.429v2.533h-.766v-2.442c0-.426-.095-.747-.287-.963-.186-.216-.455-.324-.806-.324-.388 0-.697.127-.925.382-.229.25-.344.609-.344 1.08v2.267h-.766v-2.442c0-.426-.095-.747-.287-.963-.186-.216-.455-.324-.806-.324-.388 0-.697.127-.925.382-.229.25-.344.609-.344 1.08v2.267h-.766v-4.402h.735v.656c.154-.227.356-.398.606-.515.25-.121.535-.182.854-.182.33 0 .622.069.878.207.255.139.452.34.59.607.16-.255.38-.454.662-.598.288-.144.609-.216.966-.216ZM226.127 35.213c0 .06-.006.141-.016.24h-3.432c.048.388.211.701.487.94.282.232.631.348 1.046.348.505 0 .912-.177 1.22-.532l.423.515c-.191.233-.431.41-.718.532a2.37 2.37 0 0 1-.949.183c-.447 0-.844-.095-1.189-.283a2.05 2.05 0 0 1-.806-.805 2.401 2.401 0 0 1-.28-1.163c0-.426.091-.811.272-1.154.186-.344.439-.61.758-.798a2.09 2.09 0 0 1 1.093-.29c.404 0 .763.097 1.077.29.319.189.567.454.742.798.181.343.272.736.272 1.179Zm-2.091-1.595a1.31 1.31 0 0 0-.926.35c-.244.232-.388.536-.431.913h2.714a1.413 1.413 0 0 0-.439-.906 1.265 1.265 0 0 0-.918-.357ZM229.449 32.946c.537 0 .962.163 1.276.49.32.32.479.794.479 1.42v2.533h-.766v-2.442c0-.426-.098-.747-.295-.963-.197-.216-.479-.324-.846-.324-.415 0-.742.127-.982.382-.239.25-.359.609-.359 1.08v2.267h-.766v-4.402h.734v.665c.155-.227.362-.402.623-.524a2.14 2.14 0 0 1 .902-.182ZM235 37.131c-.112.1-.25.178-.415.233-.165.05-.335.075-.511.075-.425 0-.755-.12-.989-.357-.234-.239-.351-.579-.351-1.022v-2.417h-.719v-.656h.719v-.963h.766v.963h1.213v.656H233.5v2.384c0 .238.055.42.167.548.117.127.282.191.495.191.234 0 .433-.07.598-.208l.24.573Z" fill="#fff"/><path d="M15.863 11.105h1.154v9.191h-1.154v-1.129c-.575.867-1.41 1.3-2.507 1.3-.929 0-1.72-.333-2.374-.998-.655-.674-.982-1.492-.982-2.455 0-.963.327-1.777.982-2.443.654-.674 1.445-1.01 2.374-1.01 1.096 0 1.932.433 2.507 1.3v-3.756Zm-2.361 8.259c.672 0 1.233-.223 1.684-.67.451-.455.677-1.015.677-1.68 0-.666-.226-1.221-.677-1.668-.45-.455-1.012-.683-1.684-.683-.664 0-1.22.228-1.672.683-.45.447-.676 1.002-.676 1.668 0 .665.226 1.225.676 1.68.451.447 1.008.67 1.672.67ZM19.574 17.539c.115.586.385 1.041.81 1.365.433.324.963.486 1.59.486.876 0 1.513-.32 1.911-.958l.981.551c-.645.99-1.618 1.484-2.918 1.484-1.052 0-1.91-.324-2.573-.972-.654-.656-.981-1.483-.981-2.481 0-.99.322-1.812.968-2.469.646-.656 1.481-.985 2.507-.985.973 0 1.764.342 2.374 1.024.62.675.929 1.489.929 2.443 0 .166-.014.337-.04.512h-5.558Zm2.295-2.902c-.62 0-1.132.175-1.539.525-.407.342-.659.801-.756 1.379h4.43c-.097-.622-.345-1.094-.742-1.418a2.14 2.14 0 0 0-1.393-.486ZM27.234 15.504c0 .254.128.46.384.617.257.149.566.271.929.367.363.088.725.193 1.088.316.362.113.672.315.928.604.257.28.385.643.385 1.09 0 .595-.235 1.072-.703 1.43-.46.36-1.053.539-1.778.539-.645 0-1.198-.14-1.658-.42a2.356 2.356 0 0 1-.981-1.116l.995-.565c.106.315.305.565.596.748.292.184.642.276 1.048.276.38 0 .695-.07.942-.21.248-.149.372-.376.372-.683 0-.253-.129-.455-.385-.604a3.2 3.2 0 0 0-.929-.367 17.094 17.094 0 0 1-1.087-.329 2.188 2.188 0 0 1-.929-.604c-.256-.28-.384-.639-.384-1.076 0-.57.22-1.037.663-1.405.45-.368 1.012-.552 1.684-.552.54 0 1.017.123 1.433.368.424.236.743.569.955.998l-.968.538c-.24-.56-.712-.84-1.42-.84-.327 0-.605.079-.835.236a.72.72 0 0 0-.345.644ZM32.833 12.536a.761.761 0 0 1-.557-.223.73.73 0 0 1-.226-.538c0-.21.076-.39.226-.539a.74.74 0 0 1 .557-.236c.212 0 .393.079.544.236a.73.73 0 0 1 .225.539.73.73 0 0 1-.225.538.745.745 0 0 1-.544.223Zm-.584 7.76v-6.565h1.154v6.565H32.25ZM40.668 13.731h1.141v6.29c0 .971-.331 1.724-.995 2.258-.663.543-1.459.814-2.387.814-.743 0-1.384-.14-1.924-.42a2.735 2.735 0 0 1-1.22-1.182l1.008-.565c.363.736 1.083 1.103 2.162 1.103.69 0 1.23-.18 1.618-.538.398-.359.597-.85.597-1.47v-.933c-.583.875-1.414 1.313-2.493 1.313-.947 0-1.747-.332-2.401-.998-.654-.665-.982-1.475-.982-2.429 0-.954.328-1.76.982-2.416.654-.665 1.454-.998 2.4-.998 1.088 0 1.92.434 2.494 1.3v-1.129Zm-4.045 4.91c.45.447 1.012.67 1.684.67.672 0 1.234-.223 1.685-.67.45-.446.676-1.001.676-1.667 0-.656-.225-1.208-.676-1.654-.451-.447-1.013-.67-1.685-.67-.672 0-1.233.223-1.684.67-.451.446-.677.998-.677 1.654 0 .666.226 1.221.677 1.668ZM46.86 13.56c.778 0 1.402.245 1.87.736.47.481.703 1.138.703 1.97v4.03H48.28v-3.965c0-.534-.146-.945-.437-1.234-.292-.298-.694-.447-1.207-.447-.575 0-1.04.18-1.393.538-.354.35-.53.893-.53 1.629v3.48h-1.155V13.73h1.154v.946c.47-.745 1.185-1.117 2.15-1.117ZM51.853 17.539c.115.586.385 1.041.81 1.365.433.324.963.486 1.591.486.876 0 1.512-.32 1.91-.958l.982.551c-.646.99-1.618 1.484-2.918 1.484-1.053 0-1.91-.324-2.574-.972-.654-.656-.981-1.483-.981-2.481 0-.99.323-1.812.968-2.469.646-.656 1.481-.985 2.507-.985.973 0 1.764.342 2.374 1.024.62.675.929 1.489.929 2.443 0 .166-.013.337-.04.512h-5.558Zm2.295-2.902c-.619 0-1.132.175-1.539.525-.406.342-.658.801-.756 1.379h4.43c-.097-.622-.344-1.094-.742-1.418a2.14 2.14 0 0 0-1.393-.486ZM64.256 11.105h1.154v9.191h-1.154v-1.129c-.575.867-1.41 1.3-2.507 1.3-.929 0-1.72-.333-2.374-.998-.655-.674-.982-1.492-.982-2.455 0-.963.327-1.777.982-2.443.654-.674 1.445-1.01 2.374-1.01 1.096 0 1.932.433 2.507 1.3v-3.756Zm-2.361 8.259c.672 0 1.233-.223 1.684-.67.451-.455.677-1.015.677-1.68 0-.666-.226-1.221-.677-1.668-.45-.455-1.012-.683-1.684-.683-.663 0-1.22.228-1.672.683-.45.447-.676 1.002-.676 1.668 0 .665.226 1.225.677 1.68.45.447 1.008.67 1.67.67ZM75.965 13.731h1.154v6.565h-1.154v-1.129c-.574.867-1.41 1.3-2.507 1.3-.928 0-1.72-.333-2.374-.998-.654-.674-.981-1.492-.981-2.455 0-.963.327-1.777.981-2.443.655-.674 1.446-1.01 2.374-1.01 1.097 0 1.933.433 2.507 1.3v-1.13Zm-2.36 5.633c.671 0 1.233-.223 1.684-.67.45-.455.676-1.015.676-1.68 0-.666-.225-1.221-.676-1.668-.451-.455-1.013-.683-1.685-.683-.663 0-1.22.228-1.67.683-.452.447-.677 1.002-.677 1.668 0 .665.225 1.225.676 1.68.451.447 1.008.67 1.671.67ZM82.17 13.56c.779 0 1.402.245 1.87.736.47.481.704 1.138.704 1.97v4.03H83.59v-3.965c0-.534-.146-.945-.438-1.234-.292-.298-.694-.447-1.207-.447-.575 0-1.039.18-1.393.538-.353.35-.53.893-.53 1.629v3.48h-1.154V13.73h1.154v.946c.468-.745 1.185-1.117 2.148-1.117ZM91.846 11.105H93v9.191h-1.154v-1.129c-.575.867-1.41 1.3-2.507 1.3-.928 0-1.72-.333-2.374-.998-.654-.674-.982-1.492-.982-2.455 0-.963.328-1.777.982-2.443.654-.674 1.446-1.01 2.374-1.01 1.097 0 1.932.433 2.507 1.3v-3.756Zm-2.361 8.259c.672 0 1.234-.223 1.685-.67.45-.455.676-1.015.676-1.68 0-.666-.225-1.221-.676-1.668-.451-.455-1.013-.683-1.685-.683-.663 0-1.22.228-1.671.683-.451.447-.677 1.002-.677 1.668 0 .665.226 1.225.677 1.68.45.447 1.008.67 1.671.67ZM15.863 27.183h1.154v9.191h-1.154v-1.13c-.575.867-1.41 1.3-2.507 1.3-.929 0-1.72-.332-2.374-.997-.655-.674-.982-1.493-.982-2.456 0-.962.327-1.777.982-2.442.654-.674 1.445-1.01 2.374-1.01 1.096 0 1.932.433 2.507 1.3v-3.756Zm-2.361 8.259c.672 0 1.233-.224 1.684-.67.451-.455.677-1.015.677-1.68 0-.666-.226-1.222-.677-1.668-.45-.455-1.012-.683-1.684-.683-.664 0-1.22.228-1.672.683-.45.446-.676 1.002-.676 1.667 0 .666.226 1.226.676 1.681.451.447 1.008.67 1.672.67ZM19.574 33.617c.115.586.385 1.041.81 1.365.433.324.963.486 1.59.486.876 0 1.513-.32 1.911-.959l.981.552c-.645.99-1.618 1.484-2.918 1.484-1.052 0-1.91-.324-2.573-.972-.654-.657-.981-1.484-.981-2.482 0-.989.322-1.812.968-2.468.646-.657 1.481-.985 2.507-.985.973 0 1.764.342 2.374 1.024.62.674.929 1.488.929 2.443 0 .166-.014.337-.04.512h-5.558Zm2.295-2.902c-.62 0-1.132.175-1.539.525-.407.341-.659.801-.756 1.379h4.43c-.097-.622-.345-1.095-.742-1.418a2.14 2.14 0 0 0-1.393-.486ZM30.881 29.809h1.247l-2.652 6.565h-1.354l-2.652-6.565h1.247l2.082 5.344 2.082-5.344ZM33.654 33.617c.115.586.385 1.041.81 1.365.433.324.963.486 1.591.486.876 0 1.512-.32 1.91-.959l.982.552c-.646.99-1.619 1.484-2.919 1.484-1.052 0-1.91-.324-2.573-.972-.654-.657-.981-1.484-.981-2.482 0-.989.323-1.812.968-2.468.646-.657 1.481-.985 2.507-.985.973 0 1.764.342 2.374 1.024.62.674.929 1.488.929 2.443 0 .166-.014.337-.04.512h-5.558Zm2.295-2.902c-.619 0-1.132.175-1.539.525-.406.341-.658.801-.756 1.379h4.43c-.097-.622-.344-1.095-.742-1.418a2.14 2.14 0 0 0-1.393-.486ZM40.578 36.374v-9.585h1.154v9.585h-1.154ZM49.09 35.547c-.68.665-1.508.998-2.48.998-.973 0-1.8-.333-2.48-.998-.673-.665-1.009-1.484-1.009-2.456 0-.971.336-1.79 1.008-2.455.681-.665 1.508-.998 2.48-.998.973 0 1.8.333 2.481.998.681.665 1.021 1.484 1.021 2.455 0 .972-.34 1.79-1.02 2.456Zm-2.48-.118c.663 0 1.22-.224 1.671-.67.451-.447.677-1.002.677-1.668 0-.665-.226-1.22-.677-1.667-.451-.447-1.008-.67-1.671-.67-.655 0-1.207.223-1.658.67-.451.446-.677 1.002-.677 1.667 0 .666.226 1.221.677 1.668.45.446 1.003.67 1.658.67ZM55.133 29.638c.928 0 1.72.337 2.374 1.011.654.665.982 1.48.982 2.442 0 .963-.328 1.782-.982 2.456a3.208 3.208 0 0 1-2.374.998c-1.097 0-1.932-.434-2.507-1.3V39h-1.154v-9.191h1.154v1.13c.575-.867 1.41-1.3 2.507-1.3Zm-.146 5.804c.663 0 1.22-.224 1.671-.67.451-.455.676-1.015.676-1.68 0-.666-.225-1.222-.676-1.668-.45-.455-1.008-.683-1.671-.683-.672 0-1.234.228-1.685.683-.45.446-.676 1.002-.676 1.667 0 .666.225 1.226.676 1.681.451.447 1.013.67 1.685.67ZM60.675 33.617c.114.586.384 1.041.809 1.365.433.324.963.486 1.591.486.876 0 1.513-.32 1.91-.959l.982.552c-.646.99-1.618 1.484-2.918 1.484-1.052 0-1.91-.324-2.573-.972-.655-.657-.982-1.484-.982-2.482 0-.989.323-1.812.968-2.468.646-.657 1.481-.985 2.507-.985.973 0 1.764.342 2.375 1.024.619.674.928 1.488.928 2.443 0 .166-.013.337-.04.512h-5.557Zm2.294-2.902c-.619 0-1.132.175-1.538.525-.407.341-.66.801-.756 1.379h4.43c-.098-.622-.345-1.095-.743-1.418a2.14 2.14 0 0 0-1.393-.486ZM73.077 27.183h1.154v9.191h-1.154v-1.13c-.575.867-1.41 1.3-2.507 1.3-.928 0-1.72-.332-2.374-.997-.655-.674-.982-1.493-.982-2.456 0-.962.327-1.777.982-2.442.654-.674 1.445-1.01 2.374-1.01 1.097 0 1.932.433 2.507 1.3v-3.756Zm-2.361 8.259c.672 0 1.233-.224 1.684-.67.451-.455.677-1.015.677-1.68 0-.666-.226-1.222-.677-1.668-.45-.455-1.012-.683-1.684-.683-.663 0-1.22.228-1.671.683-.451.446-.677 1.002-.677 1.667 0 .666.226 1.226.677 1.681.45.447 1.008.67 1.67.67ZM79.879 28.614a.76.76 0 0 1-.557-.223.73.73 0 0 1-.226-.538c0-.21.075-.39.226-.539a.74.74 0 0 1 .557-.236c.212 0 .393.079.544.236a.73.73 0 0 1 .225.538.73.73 0 0 1-.225.539.745.745 0 0 1-.544.223Zm-.584 7.76v-6.565h1.154v6.565h-1.154ZM85.512 29.638c.779 0 1.402.245 1.87.735.47.482.704 1.138.704 1.97v4.031h-1.154v-3.965c0-.534-.146-.946-.438-1.235-.292-.297-.694-.446-1.207-.446-.575 0-1.04.18-1.393.538-.354.35-.53.893-.53 1.629v3.479H82.21v-6.565h1.154v.945c.468-.744 1.185-1.116 2.148-1.116Z" fill="#00094A"/></svg>