<svg width="13" height="21" viewBox="0 0 13 21" fill="none" xmlns="http://www.w3.org/2000/svg">
<path d="M1.33735 9.46453L9.59152 1.22495C9.72709 1.08826 9.88838 0.979773 10.0661 0.905735C10.2438 0.831698 10.4344 0.793579 10.6269 0.793579C10.8195 0.793579 11.0101 0.831698 11.1878 0.905735C11.3655 0.979773 11.5268 1.08826 11.6624 1.22495C11.934 1.49819 12.0864 1.86781 12.0864 2.25308C12.0864 2.63835 11.934 3.00797 11.6624 3.2812L4.4436 10.5729L11.6624 17.7916C11.934 18.0649 12.0864 18.4345 12.0864 18.8197C12.0864 19.205 11.934 19.5746 11.6624 19.8479C11.5273 19.9857 11.3662 20.0953 11.1885 20.1704C11.0108 20.2455 10.8199 20.2846 10.6269 20.2854C10.434 20.2846 10.2431 20.2455 10.0654 20.1704C9.88765 20.0953 9.72658 19.9857 9.59152 19.8479L1.33735 11.6083C1.18932 11.4717 1.07119 11.306 0.990384 11.1215C0.909581 10.937 0.867867 10.7378 0.867867 10.5364C0.867867 10.335 0.909581 10.1358 0.990384 9.95132C1.07119 9.76684 1.18932 9.6011 1.33735 9.46453Z" fill="white"/>
</svg>
