<svg width="46" height="46" viewBox="0 0 46 46" fill="none" xmlns="http://www.w3.org/2000/svg">
<circle cx="23" cy="23" r="22.5" stroke="black" stroke-opacity="0.2"/>
<path fill-rule="evenodd" clip-rule="evenodd" d="M11 23.067C11 29.033 15.333 33.994 21 35V26.333H18V23H21V20.333C21 17.333 22.933 15.667 25.667 15.667C26.533 15.667 27.467 15.8 28.333 15.933V19H26.8C25.333 19 25 19.733 25 20.667V23H28.2L27.667 26.333H25V35C30.667 33.994 35 29.034 35 23.067C35 16.43 29.6 11 23 11C16.4 11 11 16.43 11 23.067Z" fill="black"/>
</svg>
