<svg width="111" height="32" fill="none" xmlns="http://www.w3.org/2000/svg"><path d="M3.132 14.033a2.86 2.86 0 0 1 .74-2.763l7.398-7.398a2.86 2.86 0 0 1 2.762-.74l6.922 1.855a5.212 5.212 0 0 1 .955-2.633L13.572.12a3.53 3.53 0 0 0-3.41.914l-9.128 9.129a3.53 3.53 0 0 0-.914 3.409l2.32 8.657a5.207 5.207 0 0 1 2.61-1.04l-1.918-7.156ZM26.886 10.571l1.982 7.396a2.858 2.858 0 0 1-.74 2.763l-7.398 7.398a2.86 2.86 0 0 1-2.762.74L10.81 26.95c-.101.949-.46 1.852-1.04 2.61l8.657 2.32a3.528 3.528 0 0 0 3.41-.914l9.128-9.129a3.53 3.53 0 0 0 .914-3.409l-2.407-8.981a5.203 5.203 0 0 1-2.587 1.124ZM2.648 23.423a4.192 4.192 0 1 0 5.928 5.929 4.192 4.192 0 0 0-5.928-5.929ZM23.206 2.432a4.192 4.192 0 1 0 5.93 5.929 4.192 4.192 0 0 0-5.93-5.93Z" fill="#C9AF89"/><path d="M18.46 27.113c-.168 0-.335-.023-.498-.066l-6.551-1.756a5.887 5.887 0 0 0-4.703-4.702l-1.755-6.55a1.932 1.932 0 0 1 .499-1.862l6.724-6.725a1.927 1.927 0 0 1 1.861-.498l6.368 1.706a5.89 5.89 0 0 0 4.836 4.564l1.805 6.739a1.932 1.932 0 0 1-.499 1.861l-6.724 6.725a1.913 1.913 0 0 1-1.362.564ZM41.184 21.5V10.076H44l3.152 8.944h.032l3.072-8.944h2.784V21.5h-1.904v-8.816h-.032L47.936 21.5h-1.648l-3.168-8.816h-.032V21.5h-1.904ZM57.403 21.468l-3.136-8.24h2l2.16 6.176h.032l2.096-6.176h1.904l-3.216 8.72c-.363.981-.683 1.643-.96 1.984-.459.565-1.115.848-1.968.848a8.3 8.3 0 0 1-1.264-.096v-1.536c.448.075.736.112.864.112.384 0 .677-.107.88-.32.138-.15.272-.427.4-.832l.208-.64ZM63.732 21.5V10.076h7.888v1.728h-5.888v2.992H70.9v1.632h-5.168V21.5h-2ZM78.064 18.716v-1.36c-.235.15-.576.261-1.024.336l-1.216.16c-.992.17-1.488.63-1.488 1.376 0 .363.203.64.608.832.31.15.667.224 1.072.224.49 0 .933-.117 1.328-.352.48-.288.72-.693.72-1.216Zm1.824-3.312v4.256c0 .416.144.624.432.624.17 0 .32-.01.448-.032v1.264a3.464 3.464 0 0 1-1.152.208c-.81 0-1.28-.336-1.408-1.008-.683.672-1.637 1.008-2.864 1.008-.8 0-1.456-.203-1.968-.608-.576-.437-.864-1.04-.864-1.808 0-.917.341-1.579 1.024-1.984.416-.245 1.136-.443 2.16-.592l1.728-.256c.501-.15.752-.453.752-.912 0-.747-.57-1.12-1.712-1.12-1.141 0-1.75.437-1.824 1.312h-1.824c.107-1.835 1.36-2.752 3.76-2.752.907 0 1.659.181 2.256.544.704.427 1.056 1.045 1.056 1.856ZM81.85 21.5v-8.272h1.729v1.152h.048c.608-.917 1.456-1.376 2.544-1.376 1.184 0 1.957.459 2.32 1.376.661-.917 1.525-1.376 2.592-1.376 1.845 0 2.768.928 2.768 2.784V21.5h-1.824v-4.832c0-.779-.075-1.312-.224-1.6-.203-.416-.63-.624-1.28-.624-1.174 0-1.76.736-1.76 2.208V21.5h-1.824v-5.312c0-.597-.112-1.035-.336-1.312-.214-.288-.587-.432-1.12-.432-.502 0-.928.192-1.28.576-.352.384-.528.907-.528 1.568V21.5H81.85ZM95.82 21.5v-8.272h1.825V21.5H95.82Zm0-9.696v-1.728h1.825v1.728H95.82ZM99.68 21.5V10.076h1.824V21.5H99.68ZM105.715 21.468l-3.136-8.24h2l2.16 6.176h.032l2.096-6.176h1.904l-3.216 8.72c-.362.981-.682 1.643-.96 1.984-.458.565-1.114.848-1.968.848-.426 0-.848-.032-1.264-.096v-1.536c.448.075.736.112.864.112.384 0 .678-.107.88-.32.139-.15.272-.427.4-.832l.208-.64Z" fill="#C9AF89"/></svg>