<svg width="110" height="110" viewBox="0 0 110 110" fill="none" xmlns="http://www.w3.org/2000/svg">
<g filter="url(#filter0_d_0_585)">
<rect x="15" width="80" height="80" rx="15" fill="#A76BC7"/>
</g>
<path d="M66.7484 58.1401C67.0402 58.1439 67.319 58.0173 67.5066 57.7976C67.6924 57.578 67.7669 57.2876 67.7074 57.0083L65.0945 44.6201L74.6817 36.097V36.0989C74.9642 35.8493 75.0701 35.464 74.953 35.1121C74.836 34.7601 74.5181 34.507 74.1409 34.466L61.2382 33.0586L55.8753 21.5436C55.7173 21.2123 55.3754 21 54.9999 21C54.6246 21 54.2826 21.2123 54.1246 21.5436L48.7616 33.0586L35.861 34.466L35.8591 34.4679C35.4818 34.507 35.1641 34.7601 35.0471 35.1121C34.9298 35.464 35.0358 35.8493 35.3183 36.0989L44.9055 44.622L42.2925 57.0101C42.2145 57.3713 42.3633 57.7456 42.6698 57.9633C42.9783 58.1811 43.3871 58.2017 43.7179 58.0191L55.0002 51.7694L66.2824 58.0173V58.0191C66.4255 58.0973 66.5853 58.1383 66.7489 58.1401H66.7484ZM65.3862 55.3587L55.4793 49.8681V49.8663C55.182 49.7006 54.8178 49.7006 54.5205 49.8663L44.6136 55.3569L46.9068 44.4787C46.9756 44.1529 46.8659 43.8159 46.6151 43.5924L38.1949 36.1044L49.5199 34.8663H49.5181C49.8563 34.8291 50.148 34.6243 50.2894 34.3246L55.0003 24.1986L59.7112 34.3264V34.3246C59.8525 34.6244 60.1442 34.831 60.4825 34.8664L71.8075 36.1044L63.3873 43.5926H63.3854C63.1346 43.8179 63.025 44.1549 63.0937 44.4787L65.3869 55.3569L65.3862 55.3587Z" fill="white"/>
<defs>
<filter id="filter0_d_0_585" x="0" y="0" width="110" height="110" filterUnits="userSpaceOnUse" color-interpolation-filters="sRGB">
<feFlood flood-opacity="0" result="BackgroundImageFix"/>
<feColorMatrix in="SourceAlpha" type="matrix" values="0 0 0 0 0 0 0 0 0 0 0 0 0 0 0 0 0 0 127 0" result="hardAlpha"/>
<feOffset dy="15"/>
<feGaussianBlur stdDeviation="7.5"/>
<feComposite in2="hardAlpha" operator="out"/>
<feColorMatrix type="matrix" values="0 0 0 0 0.516627 0 0 0 0 0.391798 0 0 0 0 0.583203 0 0 0 0.15 0"/>
<feBlend mode="normal" in2="BackgroundImageFix" result="effect1_dropShadow_0_585"/>
<feBlend mode="normal" in="SourceGraphic" in2="effect1_dropShadow_0_585" result="shape"/>
</filter>
</defs>
</svg>
